<?xml version="1.0" encoding="UTF-8"?>
<svg xmlns="http://www.w3.org/2000/svg" xmlns:xlink="http://www.w3.org/1999/xlink" width="50px" height="71px" viewBox="0 0 50 70" version="1.1">
<g id="surface1">
<path style=" stroke:none;fill-rule:nonzero;fill:rgb(0%,0%,0%);fill-opacity:1;" d="M 29.152344 36.757812 L 29.152344 45.996094 L 37.328125 46 C 41.824219 46.003906 46.023438 46.003906 46.65625 46.003906 L 47.8125 46.003906 L 47.8125 32.15625 L 43.152344 32.152344 L 38.488281 32.148438 L 38.488281 36.734375 L 43.164062 36.734375 L 43.164062 41.40625 L 33.769531 41.40625 L 33.769531 32.105469 L 38.449219 32.105469 L 38.449219 27.515625 L 29.152344 27.515625 Z M 29.152344 36.757812 "/>
<path style=" stroke:none;fill-rule:nonzero;fill:rgb(0%,0%,0%);fill-opacity:1;" d="M 7.097656 32.046875 C 6.820312 32.082031 6.578125 32.195312 6.382812 32.394531 C 6.121094 32.652344 6.011719 32.910156 5.992188 33.273438 C 5.980469 33.527344 6.007812 33.660156 6.113281 33.886719 C 6.328125 34.339844 6.746094 34.601562 7.269531 34.601562 C 7.84375 34.601562 8.304688 34.277344 8.480469 33.753906 C 8.527344 33.613281 8.535156 33.558594 8.535156 33.332031 C 8.539062 33.046875 8.515625 32.945312 8.402344 32.707031 C 8.308594 32.519531 8.0625 32.277344 7.859375 32.179688 C 7.617188 32.0625 7.359375 32.015625 7.097656 32.046875 Z M 7.59375 32.589844 C 7.953125 32.773438 8.089844 33.289062 7.890625 33.722656 C 7.707031 34.128906 7.148438 34.246094 6.820312 33.953125 C 6.621094 33.777344 6.542969 33.5625 6.558594 33.265625 C 6.570312 33.027344 6.621094 32.882812 6.746094 32.746094 C 6.902344 32.578125 7.042969 32.523438 7.308594 32.53125 C 7.457031 32.539062 7.507812 32.546875 7.59375 32.589844 Z M 7.59375 32.589844 "/>
<path style=" stroke:none;fill-rule:nonzero;fill:rgb(0%,0%,0%);fill-opacity:1;" d="M 4.113281 33.324219 L 4.113281 34.542969 L 5.828125 34.542969 L 5.828125 34.082031 L 4.636719 34.082031 L 4.636719 32.105469 L 4.113281 32.105469 Z M 4.113281 33.324219 "/>
<path style=" stroke:none;fill-rule:nonzero;fill:rgb(0%,0%,0%);fill-opacity:1;" d="M 8.648438 32.335938 L 8.648438 32.566406 L 9.445312 32.574219 L 9.453125 33.558594 L 9.457031 34.542969 L 10 34.542969 L 10 32.566406 L 10.804688 32.566406 L 10.804688 32.105469 L 8.648438 32.105469 Z M 8.648438 32.335938 "/>
<path style=" stroke:none;fill-rule:nonzero;fill:rgb(0%,0%,0%);fill-opacity:1;" d="M 11.128906 33.324219 L 11.128906 34.542969 L 11.671875 34.542969 L 11.671875 33.601562 L 12.519531 33.601562 L 12.519531 33.144531 L 11.671875 33.144531 L 11.671875 32.566406 L 12.78125 32.566406 L 12.78125 32.105469 L 11.128906 32.105469 Z M 11.128906 33.324219 "/>
<path style=" stroke:none;fill-rule:nonzero;fill:rgb(0%,0%,0%);fill-opacity:1;" d="M 13.144531 33.324219 L 13.144531 34.542969 L 13.691406 34.542969 L 13.691406 32.105469 L 13.144531 32.105469 Z M 13.144531 33.324219 "/>
<path style=" stroke:none;fill-rule:nonzero;fill:rgb(0%,0%,0%);fill-opacity:1;" d="M 14.820312 32.335938 L 14.820312 32.566406 L 15.464844 32.566406 C 15.820312 32.566406 16.109375 32.574219 16.109375 32.582031 C 16.109375 32.601562 15.996094 32.734375 15.808594 32.933594 C 15.726562 33.023438 15.597656 33.167969 15.523438 33.253906 C 15.449219 33.339844 15.351562 33.449219 15.308594 33.492188 C 15.242188 33.5625 14.9375 33.90625 14.804688 34.058594 C 14.765625 34.105469 14.761719 34.132812 14.757812 34.324219 L 14.757812 34.542969 L 16.816406 34.542969 L 16.816406 34.082031 L 16.140625 34.082031 C 15.675781 34.082031 15.464844 34.074219 15.464844 34.058594 C 15.464844 34.050781 15.558594 33.929688 15.679688 33.792969 C 15.800781 33.660156 16.007812 33.425781 16.140625 33.273438 C 16.277344 33.121094 16.476562 32.890625 16.589844 32.765625 L 16.792969 32.535156 L 16.792969 32.105469 L 14.820312 32.105469 Z M 14.820312 32.335938 "/>
<path style=" stroke:none;fill-rule:nonzero;fill:rgb(0%,0%,0%);fill-opacity:1;" d="M 17.765625 32.550781 C 17.675781 32.796875 17.53125 33.175781 17.449219 33.394531 C 17.277344 33.839844 17.195312 34.058594 17.089844 34.347656 L 17.015625 34.542969 L 17.300781 34.535156 L 17.589844 34.53125 L 17.660156 34.300781 C 17.703125 34.175781 17.738281 34.050781 17.75 34.027344 C 17.765625 33.980469 17.765625 33.980469 18.222656 33.980469 L 18.679688 33.984375 L 18.859375 34.53125 L 19.148438 34.535156 C 19.371094 34.542969 19.433594 34.535156 19.433594 34.515625 C 19.433594 34.503906 19.40625 34.417969 19.371094 34.332031 C 19.339844 34.242188 19.207031 33.886719 19.078125 33.542969 C 18.953125 33.199219 18.816406 32.839844 18.78125 32.746094 C 18.742188 32.652344 18.675781 32.46875 18.628906 32.339844 L 18.539062 32.105469 L 17.933594 32.105469 Z M 18.445312 33.253906 C 18.488281 33.386719 18.527344 33.511719 18.535156 33.539062 L 18.550781 33.582031 L 18.226562 33.582031 C 17.980469 33.582031 17.902344 33.578125 17.902344 33.558594 C 17.902344 33.523438 18.191406 32.683594 18.214844 32.644531 C 18.234375 32.617188 18.28125 32.738281 18.445312 33.253906 Z M 18.445312 33.253906 "/>
<path style=" stroke:none;fill-rule:nonzero;fill:rgb(0%,0%,0%);fill-opacity:1;" d="M 19.738281 33.324219 L 19.738281 34.542969 L 20.390625 34.535156 C 21.03125 34.527344 21.039062 34.527344 21.203125 34.476562 C 21.699219 34.3125 21.992188 33.898438 21.996094 33.363281 C 21.996094 32.851562 21.785156 32.464844 21.402344 32.261719 C 21.144531 32.128906 21.089844 32.121094 20.378906 32.113281 L 19.738281 32.101562 Z M 20.851562 32.59375 C 21.023438 32.628906 21.097656 32.660156 21.199219 32.75 C 21.351562 32.878906 21.429688 33.085938 21.429688 33.332031 C 21.429688 33.558594 21.367188 33.730469 21.230469 33.867188 C 21.085938 34.023438 20.898438 34.082031 20.53125 34.082031 L 20.28125 34.082031 L 20.28125 33.335938 C 20.28125 32.925781 20.289062 32.585938 20.296875 32.578125 C 20.320312 32.554688 20.699219 32.566406 20.851562 32.59375 Z M 20.851562 32.59375 "/>
<path style=" stroke:none;fill-rule:nonzero;fill:rgb(0%,0%,0%);fill-opacity:1;" d="M 22.398438 33.324219 L 22.398438 34.542969 L 24.152344 34.542969 L 24.152344 34.082031 L 22.945312 34.082031 L 22.945312 33.523438 L 23.832031 33.523438 L 23.832031 33.085938 L 22.945312 33.085938 L 22.945312 32.566406 L 24.074219 32.566406 L 24.074219 32.105469 L 22.398438 32.105469 Z M 22.398438 33.324219 "/>
<path style=" stroke:none;fill-rule:nonzero;fill:rgb(0%,0%,0%);fill-opacity:1;" d="M 24.578125 33.324219 L 24.578125 34.542969 L 25.101562 34.542969 L 25.101562 33.523438 L 26.210938 33.523438 L 26.210938 34.542969 L 26.753906 34.542969 L 26.753906 32.105469 L 26.210938 32.105469 L 26.207031 32.578125 L 26.199219 33.054688 L 25.652344 33.058594 L 25.101562 33.0625 L 25.101562 32.105469 L 24.578125 32.105469 Z M 24.578125 33.324219 "/>
<path style=" stroke:none;fill-rule:nonzero;fill:rgb(0%,0%,0%);fill-opacity:1;" d="M 7.507812 35.480469 C 7.238281 35.546875 7.023438 35.6875 6.871094 35.886719 C 6.664062 36.160156 6.582031 36.425781 6.597656 36.796875 C 6.613281 37.167969 6.722656 37.421875 6.972656 37.664062 C 7.199219 37.886719 7.484375 37.992188 7.863281 37.992188 C 8.242188 37.992188 8.507812 37.890625 8.753906 37.65625 L 8.902344 37.515625 L 8.722656 37.34375 L 8.546875 37.175781 L 8.421875 37.277344 C 8.226562 37.4375 8.113281 37.480469 7.894531 37.480469 C 7.730469 37.480469 7.695312 37.472656 7.578125 37.421875 C 7.417969 37.347656 7.316406 37.242188 7.230469 37.074219 C 7.171875 36.953125 7.167969 36.933594 7.167969 36.707031 C 7.167969 36.480469 7.171875 36.460938 7.230469 36.335938 C 7.3125 36.164062 7.414062 36.050781 7.554688 35.984375 C 7.660156 35.933594 7.691406 35.929688 7.882812 35.929688 C 8.070312 35.929688 8.109375 35.933594 8.210938 35.980469 C 8.273438 36.011719 8.371094 36.082031 8.429688 36.136719 L 8.535156 36.242188 L 8.703125 36.074219 C 8.792969 35.984375 8.871094 35.898438 8.871094 35.890625 C 8.871094 35.851562 8.628906 35.644531 8.515625 35.582031 C 8.242188 35.441406 7.824219 35.398438 7.507812 35.480469 Z M 7.507812 35.480469 "/>
<path style=" stroke:none;fill-rule:nonzero;fill:rgb(0%,0%,0%);fill-opacity:1;" d="M 15.402344 35.480469 C 15.203125 35.53125 15.011719 35.652344 14.839844 35.820312 C 14.597656 36.066406 14.492188 36.339844 14.492188 36.742188 C 14.496094 37.125 14.589844 37.367188 14.839844 37.617188 C 15.070312 37.847656 15.257812 37.945312 15.554688 37.996094 C 15.972656 38.0625 16.367188 37.9375 16.664062 37.644531 C 16.851562 37.457031 16.957031 37.273438 17.007812 37.039062 C 17.105469 36.554688 16.96875 36.082031 16.636719 35.769531 C 16.523438 35.664062 16.320312 35.542969 16.167969 35.496094 C 15.976562 35.433594 15.605469 35.425781 15.402344 35.480469 Z M 16.058594 35.976562 C 16.109375 36 16.195312 36.058594 16.246094 36.113281 C 16.566406 36.433594 16.566406 36.988281 16.238281 37.320312 C 16.097656 37.464844 16 37.503906 15.757812 37.503906 C 15.578125 37.503906 15.542969 37.5 15.453125 37.449219 C 15.28125 37.363281 15.136719 37.183594 15.070312 36.980469 C 15.019531 36.816406 15.035156 36.503906 15.105469 36.351562 C 15.164062 36.230469 15.316406 36.050781 15.40625 36.003906 C 15.589844 35.910156 15.878906 35.898438 16.058594 35.976562 Z M 16.058594 35.976562 "/>
<path style=" stroke:none;fill-rule:nonzero;fill:rgb(0%,0%,0%);fill-opacity:1;" d="M 20.304688 35.46875 C 20.242188 35.484375 20.117188 35.53125 20.023438 35.582031 C 19.726562 35.726562 19.523438 35.96875 19.414062 36.300781 C 19.292969 36.660156 19.316406 36.972656 19.488281 37.332031 C 19.632812 37.636719 19.992188 37.910156 20.363281 37.984375 C 20.773438 38.070312 21.242188 37.9375 21.515625 37.660156 C 21.667969 37.503906 21.746094 37.378906 21.816406 37.199219 C 21.933594 36.875 21.941406 36.625 21.835938 36.296875 C 21.710938 35.894531 21.328125 35.546875 20.910156 35.460938 C 20.769531 35.429688 20.441406 35.433594 20.304688 35.46875 Z M 20.90625 35.976562 C 21.078125 36.039062 21.222656 36.210938 21.300781 36.433594 C 21.328125 36.515625 21.332031 36.589844 21.328125 36.753906 C 21.320312 36.953125 21.316406 36.976562 21.242188 37.121094 C 21.078125 37.453125 20.769531 37.585938 20.398438 37.480469 C 20.261719 37.441406 20.09375 37.308594 20.011719 37.167969 C 19.953125 37.066406 19.898438 36.863281 19.898438 36.722656 C 19.898438 36.332031 20.128906 36.003906 20.449219 35.9375 C 20.574219 35.910156 20.78125 35.929688 20.90625 35.976562 Z M 20.90625 35.976562 "/>
<path style=" stroke:none;fill-rule:nonzero;fill:rgb(0%,0%,0%);fill-opacity:1;" d="M 23.226562 35.46875 C 22.914062 35.539062 22.742188 35.632812 22.554688 35.839844 C 22.289062 36.128906 22.179688 36.503906 22.238281 36.9375 C 22.265625 37.136719 22.332031 37.339844 22.40625 37.453125 C 22.558594 37.679688 22.78125 37.855469 23.019531 37.9375 C 23.144531 37.980469 23.191406 37.984375 23.519531 37.984375 C 23.871094 37.980469 23.886719 37.980469 24.078125 37.917969 C 24.195312 37.878906 24.324219 37.816406 24.402344 37.765625 L 24.527344 37.683594 L 24.53125 37.148438 L 24.535156 36.617188 L 23.609375 36.617188 L 23.609375 37.035156 L 24.050781 37.035156 L 24.050781 37.386719 L 23.941406 37.441406 C 23.648438 37.585938 23.253906 37.546875 23.054688 37.363281 C 22.878906 37.195312 22.792969 37.035156 22.773438 36.804688 C 22.738281 36.460938 22.921875 36.113281 23.207031 35.980469 C 23.300781 35.933594 23.34375 35.929688 23.519531 35.929688 C 23.753906 35.929688 23.839844 35.960938 24.023438 36.125 L 24.132812 36.222656 L 24.210938 36.15625 C 24.398438 35.992188 24.496094 35.898438 24.496094 35.882812 C 24.496094 35.871094 24.441406 35.808594 24.371094 35.75 C 24.15625 35.558594 23.902344 35.464844 23.570312 35.449219 C 23.425781 35.441406 23.316406 35.449219 23.226562 35.46875 Z M 23.226562 35.46875 "/>
<path style=" stroke:none;fill-rule:nonzero;fill:rgb(0%,0%,0%);fill-opacity:1;" d="M 2.117188 35.726562 L 2.117188 35.957031 L 2.945312 35.957031 L 2.945312 37.953125 L 3.488281 37.953125 L 3.496094 35.96875 L 3.898438 35.960938 L 4.292969 35.957031 L 4.292969 35.5 L 2.117188 35.5 Z M 2.117188 35.726562 "/>
<path style=" stroke:none;fill-rule:nonzero;fill:rgb(0%,0%,0%);fill-opacity:1;" d="M 4.636719 36.726562 L 4.636719 37.953125 L 6.410156 37.953125 L 6.410156 37.496094 L 5.179688 37.496094 L 5.183594 37.207031 L 5.191406 36.925781 L 5.632812 36.917969 L 6.070312 36.914062 L 6.070312 36.476562 L 5.179688 36.476562 L 5.179688 35.957031 L 6.308594 35.957031 L 6.308594 35.5 L 4.636719 35.5 Z M 4.636719 36.726562 "/>
<path style=" stroke:none;fill-rule:nonzero;fill:rgb(0%,0%,0%);fill-opacity:1;" d="M 9.234375 36.726562 L 9.234375 37.953125 L 9.757812 37.953125 L 9.757812 36.914062 L 10.296875 36.914062 C 10.691406 36.914062 10.84375 36.921875 10.863281 36.941406 C 10.882812 36.957031 10.886719 37.097656 10.886719 37.457031 L 10.886719 37.953125 L 11.410156 37.953125 L 11.410156 35.5 L 10.886719 35.5 L 10.878906 36.445312 L 9.769531 36.445312 L 9.761719 35.972656 L 9.757812 35.5 L 9.234375 35.5 Z M 9.234375 36.726562 "/>
<path style=" stroke:none;fill-rule:nonzero;fill:rgb(0%,0%,0%);fill-opacity:1;" d="M 11.914062 36.726562 L 11.914062 37.953125 L 12.441406 37.953125 L 12.441406 37.136719 C 12.441406 36.683594 12.449219 36.316406 12.457031 36.316406 C 12.464844 36.316406 12.722656 36.683594 13.027344 37.136719 L 13.578125 37.953125 L 14.050781 37.953125 L 14.050781 35.5 L 13.527344 35.5 L 13.527344 36.296875 C 13.527344 36.734375 13.523438 37.09375 13.515625 37.09375 C 13.5 37.09375 13.265625 36.746094 12.613281 35.773438 L 12.429688 35.5 L 11.914062 35.5 Z M 11.914062 36.726562 "/>
<path style=" stroke:none;fill-rule:nonzero;fill:rgb(0%,0%,0%);fill-opacity:1;" d="M 17.460938 36.726562 L 17.460938 37.953125 L 19.195312 37.953125 L 19.195312 37.496094 L 18.605469 37.492188 L 18.015625 37.484375 L 18.007812 36.492188 L 18.003906 35.5 L 17.460938 35.5 Z M 17.460938 36.726562 "/>
<path style=" stroke:none;fill-rule:nonzero;fill:rgb(0%,0%,0%);fill-opacity:1;" d="M 24.683594 35.511719 C 24.757812 35.648438 24.902344 35.882812 25.039062 36.109375 C 25.136719 36.261719 25.289062 36.515625 25.378906 36.667969 L 25.542969 36.949219 L 25.542969 37.953125 L 26.089844 37.953125 L 26.089844 36.914062 L 26.273438 36.613281 C 26.375 36.445312 26.484375 36.269531 26.515625 36.222656 C 26.546875 36.175781 26.574219 36.136719 26.574219 36.132812 C 26.574219 36.125 26.65625 35.984375 26.753906 35.820312 C 26.855469 35.65625 26.933594 35.515625 26.933594 35.507812 C 26.933594 35.503906 26.808594 35.5 26.65625 35.5 L 26.371094 35.5 L 26.257812 35.703125 C 26.195312 35.816406 26.105469 35.96875 26.058594 36.046875 C 26.011719 36.125 25.945312 36.238281 25.910156 36.300781 C 25.871094 36.363281 25.832031 36.417969 25.820312 36.417969 C 25.804688 36.417969 25.738281 36.3125 25.667969 36.179688 C 25.597656 36.054688 25.476562 35.847656 25.40625 35.722656 L 25.273438 35.5 L 24.972656 35.5 C 24.808594 35.5 24.679688 35.503906 24.683594 35.511719 Z M 24.683594 35.511719 "/>
<path style=" stroke:none;fill-rule:nonzero;fill:rgb(0%,0%,0%);fill-opacity:1;" d="M 14.132812 38.839844 C 13.8125 38.898438 13.617188 38.992188 13.421875 39.179688 C 13.351562 39.25 13.257812 39.359375 13.21875 39.425781 C 12.960938 39.847656 12.976562 40.488281 13.253906 40.871094 C 13.515625 41.238281 13.917969 41.421875 14.394531 41.398438 C 14.664062 41.386719 14.824219 41.328125 15.074219 41.164062 C 15.164062 41.101562 15.34375 40.933594 15.34375 40.90625 C 15.34375 40.898438 15.265625 40.824219 15.171875 40.738281 L 15.003906 40.585938 L 14.882812 40.675781 C 14.660156 40.835938 14.550781 40.875 14.335938 40.875 C 14.046875 40.875 13.820312 40.746094 13.695312 40.503906 C 13.492188 40.117188 13.632812 39.574219 13.972656 39.402344 C 14.167969 39.308594 14.480469 39.300781 14.667969 39.390625 C 14.71875 39.414062 14.808594 39.480469 14.867188 39.535156 L 14.980469 39.632812 L 15.164062 39.464844 L 15.347656 39.300781 L 15.203125 39.167969 C 15.113281 39.082031 15.003906 39.003906 14.914062 38.960938 C 14.679688 38.847656 14.359375 38.800781 14.132812 38.839844 Z M 14.132812 38.839844 "/>
<path style=" stroke:none;fill-rule:nonzero;fill:rgb(0%,0%,0%);fill-opacity:1;" d="M 15.664062 40.128906 L 15.664062 41.34375 L 15.933594 41.34375 C 16.078125 41.34375 16.476562 41.351562 16.820312 41.359375 L 17.441406 41.371094 L 17.441406 40.886719 L 16.207031 40.886719 L 16.214844 40.609375 L 16.21875 40.335938 L 16.660156 40.332031 L 17.097656 40.328125 L 17.097656 39.890625 L 16.660156 39.886719 L 16.21875 39.878906 L 16.214844 39.625 L 16.207031 39.371094 L 17.359375 39.371094 L 17.359375 38.910156 L 15.664062 38.910156 Z M 15.664062 40.128906 "/>
<path style=" stroke:none;fill-rule:nonzero;fill:rgb(0%,0%,0%);fill-opacity:1;" d="M 17.824219 40.128906 L 17.824219 41.34375 L 18.367188 41.34375 L 18.367188 40.527344 C 18.367188 39.878906 18.371094 39.714844 18.394531 39.71875 C 18.40625 39.726562 18.492188 39.84375 18.582031 39.984375 C 18.769531 40.269531 18.75 40.238281 19.179688 40.875 L 19.496094 41.34375 L 20 41.34375 L 20 38.910156 L 19.476562 38.910156 L 19.476562 39.683594 C 19.476562 40.109375 19.46875 40.46875 19.457031 40.484375 C 19.445312 40.507812 18.96875 39.832031 18.503906 39.125 L 18.363281 38.910156 L 17.824219 38.910156 Z M 17.824219 40.128906 "/>
<path style=" stroke:none;fill-rule:nonzero;fill:rgb(0%,0%,0%);fill-opacity:1;" d="M 20.34375 39.140625 L 20.34375 39.371094 L 21.148438 39.371094 L 21.148438 41.34375 L 21.695312 41.34375 L 21.695312 39.371094 L 22.5 39.371094 L 22.5 38.910156 L 20.34375 38.910156 Z M 20.34375 39.140625 "/>
<path style=" stroke:none;fill-rule:nonzero;fill:rgb(0%,0%,0%);fill-opacity:1;" d="M 22.824219 40.128906 L 22.824219 41.34375 L 23.070312 41.34375 C 23.207031 41.34375 23.605469 41.351562 23.957031 41.359375 L 24.597656 41.371094 L 24.597656 40.886719 L 23.363281 40.886719 L 23.371094 40.609375 L 23.378906 40.335938 L 24.253906 40.328125 L 24.253906 39.890625 L 23.816406 39.886719 L 23.378906 39.878906 L 23.363281 39.371094 L 24.515625 39.371094 L 24.515625 38.910156 L 22.824219 38.910156 Z M 22.824219 40.128906 "/>
<path style=" stroke:none;fill-rule:nonzero;fill:rgb(0%,0%,0%);fill-opacity:1;" d="M 24.980469 40.128906 L 24.980469 41.34375 L 25.523438 41.34375 L 25.523438 40.425781 L 25.683594 40.425781 C 25.785156 40.425781 25.847656 40.4375 25.863281 40.453125 C 25.871094 40.464844 25.984375 40.671875 26.109375 40.910156 L 26.335938 41.34375 L 26.613281 41.34375 C 26.769531 41.34375 26.894531 41.339844 26.894531 41.335938 C 26.894531 41.320312 26.554688 40.710938 26.492188 40.605469 C 26.460938 40.558594 26.417969 40.484375 26.398438 40.441406 C 26.363281 40.367188 26.363281 40.367188 26.414062 40.332031 C 26.511719 40.269531 26.640625 40.121094 26.691406 40.011719 C 26.738281 39.910156 26.742188 39.875 26.742188 39.667969 C 26.742188 39.464844 26.738281 39.429688 26.691406 39.332031 C 26.632812 39.203125 26.527344 39.09375 26.402344 39.019531 C 26.234375 38.921875 26.144531 38.910156 25.539062 38.910156 L 24.980469 38.910156 Z M 26.039062 39.367188 C 26.210938 39.445312 26.277344 39.648438 26.195312 39.835938 C 26.128906 39.980469 26.039062 40.015625 25.746094 40.015625 L 25.515625 40.019531 L 25.507812 39.671875 L 25.503906 39.332031 L 25.730469 39.332031 C 25.910156 39.332031 25.976562 39.339844 26.039062 39.367188 Z M 26.039062 39.367188 "/>
</g>
</svg>
