<svg width="30" height="30" viewBox="0 0 30 30" fill="none" xmlns="http://www.w3.org/2000/svg">
<path d="M12.2429 11.6932V18.1653C12.2429 18.629 12.4546 18.9818 12.878 19.2238C13.3014 19.4657 13.7147 19.4456 14.1179 19.1633L19.1383 15.9575C19.5214 15.7156 19.7129 15.3728 19.7129 14.9293C19.7129 14.4857 19.5214 14.1429 19.1383 13.901L14.1179 10.6952C13.7147 10.4129 13.3014 10.3928 12.878 10.6347C12.4546 10.8767 12.2429 11.2295 12.2429 11.6932ZM15.2672 27.0265C13.5937 27.0265 12.0211 26.7087 10.5492 26.0732C9.07741 25.4385 7.79712 24.5768 6.70837 23.4881C5.61961 22.3993 4.75789 21.119 4.12319 19.6472C3.48768 18.1753 3.16992 16.6027 3.16992 14.9293C3.16992 13.2558 3.48768 11.6832 4.12319 10.2113C4.75789 8.7395 5.61961 7.45921 6.70837 6.37045C7.79712 5.2817 9.07741 4.41957 10.5492 3.78406C12.0211 3.14936 13.5937 2.83201 15.2672 2.83201C16.9406 2.83201 18.5133 3.14936 19.9851 3.78406C21.4569 4.41957 22.7372 5.2817 23.826 6.37045C24.9147 7.45921 25.7764 8.7395 26.4112 10.2113C27.0467 11.6832 27.3644 13.2558 27.3644 14.9293C27.3644 16.6027 27.0467 18.1753 26.4112 19.6472C25.7764 21.119 24.9147 22.3993 23.826 23.4881C22.7372 24.5768 21.4569 25.4385 19.9851 26.0732C18.5133 26.7087 16.9406 27.0265 15.2672 27.0265Z" fill="#000"/>
</svg>
